<svg xmlns="http://www.w3.org/2000/svg" xmlns:xlink="http://www.w3.org/1999/xlink" xmlns:inkscape="http://www.inkscape.org/namespaces/inkscape" version="1.1" width="54" height="39.13379" viewBox="0 0 54 39.13379">
<path transform="matrix(1,0,0,-1,10,32.40979)" d="M9.856445 24.283814C10.317746 25.266133 11.490846 25.68577 12.470703 25.21936 12.490408 25.209973 12.509086 25.198084 12.52832 25.18811 13.292271 25.221817 14.038043 24.804587 14.387695 24.070923L17.63086 17.2594C18.525977 18.4973 19.687609 19.527144 21.036133 20.269165 22.826022 21.254025 24.865612 21.687447 26.896485 21.513306 28.927103 21.339112 30.858134 20.565863 32.445314 19.291626L29.957032 16.192017C28.98015 16.976342 27.791832 17.45295 26.541993 17.56018 25.29204 17.66736 24.036204 17.400713 22.93457 16.794556 21.833157 16.188448 20.934493 15.269869 20.35254 14.154907 20.1096 13.689405 19.92695 13.197886 19.805665 12.692993L20.13379 12.00354C20.492922 11.249214 20.32658 10.382258 19.78418 9.810181 20.005017 8.830826 20.456414 7.915134 21.104493 7.141235 21.908886 6.180731 22.98077 5.481739 24.18457 5.132446 25.388617 4.783178 26.671399 4.799429 27.86914 5.179321 29.066685 5.559237 30.126429 6.285387 30.914063 7.266235L34 4.788696C32.720205 3.194901 30.998639 2.014353 29.052735 1.397095 27.106793 .779894 25.023579 .75354 23.067383 1.320923 21.111098 1.888397 19.36866 3.024662 18.061524 4.585571 16.754485 6.146444 15.941029 8.062317 15.723633 10.090454 15.649704 10.780235 15.647575 11.472318 15.711914 12.15686L12.06543 19.81604 7.855469 10.978149 10.994141 10.75354 12.564453 7.220337H6.066406L2.758789 .276001 0 3.294556 9.856445 24.283814Z" fill="#ffffff" fill-opacity=".8"/>
</svg>
