<svg xmlns="http://www.w3.org/2000/svg" xmlns:xlink="http://www.w3.org/1999/xlink" xmlns:inkscape="http://www.inkscape.org/namespaces/inkscape" version="1.1" width="67" height="62" viewBox="0 0 67 62">
<path transform="matrix(1,0,0,-1,0,62)" d="M31 58.125C46.1125 58.125 58.125 46.1125 58.125 31 58.125 15.887501 46.1125 3.875 31 3.875 15.8875 3.875 3.875 15.887501 3.875 31 3.875 46.1125 15.8875 58.125 31 58.125ZM31 62C13.95 62 0 48.05 0 31 0 13.950001 13.95 0 31 0 48.05 0 62 13.950001 62 31 62 48.05 48.05 62 31 62Z" fill="#1e293b" fill-opacity=".3"/>
<path transform="matrix(1,0,0,-1,13.174805,51.150026)" d="M17.824999 .000025C10.074999 .000025 3.1 4.650024 0 12.012524L3.4875 13.562525C5.8125 7.750025 11.624999 4.262524 17.824999 4.262524 24.024998 4.262524 29.837494 8.137526 32.162496 13.562525L35.65 12.012524C32.550004 4.262524 25.574999 .000025 17.824999 .000025ZM13.949999 27.900025C13.949999 26.87231 13.54174 25.88669 12.815037 25.159987 12.088333 24.433283 11.102713 24.025025 10.074999 24.025025 9.047285 24.025025 8.061665 24.433283 7.334961 25.159987 6.608257 25.88669 6.199999 26.87231 6.199999 27.900025 6.199999 28.927739 6.608257 29.913359 7.334961 30.640063 8.061665 31.366766 9.047285 31.775025 10.074999 31.775025 11.102713 31.775025 12.088333 31.366766 12.815037 30.640063 13.54174 29.913359 13.949999 28.927739 13.949999 27.900025ZM29.449997 27.900025C29.449997 26.87231 29.04174 25.88669 28.315037 25.159987 27.588334 24.433283 26.602713 24.025025 25.574999 24.025025 24.547286 24.025025 23.561665 24.433283 22.83496 25.159987 22.108258 25.88669 21.699999 26.87231 21.699999 27.900025 21.699999 28.927739 22.108258 29.913359 22.83496 30.640063 23.561665 31.366766 24.547286 31.775025 25.574999 31.775025 26.602713 31.775025 27.588334 31.366766 28.315037 30.640063 29.04174 29.913359 29.449997 28.927739 29.449997 27.900025Z" fill="#1e293b" fill-opacity=".3"/>
<path transform="matrix(1,0,0,-1,55,45.66858)" d="M1.06066 7.729239C.474874 8.315025-.474874 8.315025-1.06066 7.729239-1.646447 7.143453-1.646447 6.193706-1.06066 5.607919L0 6.668579 1.06066 7.729239ZM3.5 3.168579 2.43934 2.107919C2.726984 1.820274 3.11912 1.661792 3.525851 1.668802 3.932581 1.675813 4.319022 1.847715 4.596583 2.145102L3.5 3.168579ZM11.596583 9.645102C12.161834 10.250728 12.129104 11.199911 11.523478 11.765162 10.917851 12.330413 9.968668 12.297683 9.403417 11.692057L10.5 10.668579 11.596583 9.645102ZM0 6.668579-1.06066 5.607919 2.43934 2.107919 3.5 3.168579 4.56066 4.229239 1.06066 7.729239 0 6.668579ZM3.5 3.168579 4.596583 2.145102 11.596583 9.645102 10.5 10.668579 9.403417 11.692057 2.403417 4.192057 3.5 3.168579Z" fill="#2563eb"/>
</svg>
