<svg xmlns="http://www.w3.org/2000/svg" xmlns:xlink="http://www.w3.org/1999/xlink" xmlns:inkscape="http://www.inkscape.org/namespaces/inkscape" version="1.1" width="148.80274" height="109.99902" viewBox="0 0 148.80274 109.99902">
<path transform="matrix(1,0,0,-1,0,111.20654)" d="M43.140626 106.27881C45.16008 110.57777 50.291585 112.41426 54.58008 110.37256 56.463197 109.4759 57.86789 107.98026 58.676759 106.223148 58.80167 106.01013 58.921144 105.79103 59.029298 105.563968L74.93457 72.16162C79.0608 79.09448 84.97031 84.81805 92.0625 88.720218 99.89639 93.0304 108.82233 94.92471 117.71094 94.1626 126.59948 93.40045 135.05175 90.016468 141.99903 84.438968L131.1084 70.87744C126.83251 74.31022 121.629848 76.39276 116.15918 76.86182 110.68863 77.330799 105.19546 76.1649 100.37402 73.51221 95.55263 70.85948 91.61953 66.83879 89.072269 61.958498 86.52501 57.077959 85.47784 51.556486 86.06348 46.09326 86.64914 40.63009 88.84119 35.469575 92.362308 31.265137 95.88337 27.060936 100.57517 24.000687 105.84473 22.472168 111.114528 20.943619 116.725559 21.015648 121.96777 22.678223 127.209987 24.340798 131.8482 27.519677 135.2959 31.812989L148.80274 20.969239C143.20107 13.993645 135.6648 8.828728 127.14746 6.127441 118.6302 3.426247 109.514209 3.309959 100.95215 5.793457 92.390178 8.276955 84.76685 13.248543 79.0459 20.07959 73.32489 26.910836 69.763057 35.294969 68.81152 44.171388 68.772 44.54003 68.73839 44.908945 68.70801 45.277833 68.69348 45.307474 68.677318 45.336824 68.663089 45.3667L50.887697 82.6958 34.38867 48.055177 48.114259 47.07373 54.987306 31.61084H26.557618L12.078125 1.20752 0 14.42041 43.140626 106.27881Z" fill="#2563eb"/>
</svg>
